<svg id="_лой_1" data-name="Слой 1" xmlns="http://www.w3.org/2000/svg" viewBox="0 0 255.12 141.73">
  <defs>
    <style>
      .cls-1 {
        fill: #e6cf90;
      }

      .cls-1, .cls-2 {
        fill-rule: evenodd;
      }

      .cls-3, .cls-2 {
        fill: #FABD2F;
      }
    </style>
  </defs>
  <path class="cls-2" d="M152.27,73.16v25.91h-6.91v-3.54h-12.34l6.93-6.31h5.41v-6.85l-19.21,17.28v-9.13l19.21-17.35h6.91Zm29.08,0v26.37l-17.89-16.09v15.63h-6.91v-20.59l5.93-5.32,11.96,10.86v-10.86h6.91Zm22.47,0h9.47l-12.93,12.33,5.71,5.22v8.97l-10.77-9.62-3.12,2.84v6.2h-6.91v-20.27l6.91-6.25v11.2l11.65-10.62Zm15.41-.64v26.57h-6.91v-20.33l6.91-6.24Zm29.04,.65v26.37l-17.89-16.09v15.63h-6.91v-20.59l5.93-5.32,11.96,10.86v-10.86h6.91Zm-150.97,0c-5.34,0-7.19,.82-8.85,2.46-1.66,1.64-2.49,3.51-2.49,5.62s.76,3.97,2.27,5.6c1.52,1.63,3.43,2.44,5.74,2.44,1.74,0,2.61,.62,2.61,1.86,0,.46-.17,.85-.51,1.19-.34,.33-.73,.5-1.18,.5h-9.06v6.26h9.62c2.13,0,3.98-.73,5.55-2.2,1.66-1.56,2.49-3.51,2.49-5.84s-.82-4.3-2.47-5.84c-1.53-1.45-3.35-2.17-5.47-2.17-1.79,0-2.68-.63-2.68-1.89,0-.47,.18-.87,.55-1.2,.36-.34,.77-.51,1.21-.51h19.21v19.65h6.91v-19.65h12.29l6.88-6.26h-42.61Z"/>
  <path class="cls-1" d="M88.92,105.47h-.03v4.62h-1.51v-6.46h2.13l1.53,4.44,1.53-4.44h2.13v6.46h-1.51v-4.62h-.03l-1.6,4.62h-1.03l-1.6-4.62Zm7.99,1.39c0-1.51,.72-3.42,3.25-3.42,2.21,0,3.25,1.46,3.25,3.42s-1.04,3.42-3.25,3.42c-2.53,0-3.25-1.91-3.25-3.42m4.86,0c0-.58-.06-2.16-1.61-2.16-.84,0-1.61,.45-1.61,2.16s.77,2.16,1.61,2.16c1.54,0,1.61-1.62,1.61-2.16m5,1.13c0,.4,.2,1.03,1.28,1.03,.57,0,1.15-.1,1.15-.67,0-.7-.85-.83-1.63-1.01-1.15-.26-2.12-.55-2.12-1.99,0-1.04,.7-1.91,2.63-1.91,1.78,0,2.42,1.02,2.44,1.96h-1.43c-.04-.35-.29-.7-1.1-.7-.75,0-.99,.29-.99,.62,0,.56,.72,.68,1.27,.8,1.35,.26,2.49,.6,2.49,2.01,0,.52-.15,2.15-2.72,2.15-2.37,0-2.79-1.42-2.8-2.28h1.53Zm11.87-.19c-.1,.97-.64,2.47-2.92,2.47-1.64,0-3.15-.76-3.15-3.3,0-3.4,2.48-3.53,3.09-3.53,2.27,0,2.85,1.43,2.9,2.38h-1.49c-.14-1.08-.99-1.13-1.34-1.13s-1.54,.06-1.54,2.22c0,1.22,.55,2.1,1.58,2.1s1.28-.73,1.35-1.21h1.51Zm1.74-.95c0-1.51,.72-3.42,3.25-3.42,2.21,0,3.25,1.46,3.25,3.42s-1.03,3.42-3.25,3.42c-2.53,0-3.25-1.91-3.25-3.42m4.86,0c0-.58-.06-2.16-1.61-2.16-.83,0-1.61,.45-1.61,2.16s.77,2.16,1.61,2.16c1.54,0,1.61-1.62,1.61-2.16m6.4,3.23h-1.64l-1.7-6.46h1.59l1.04,4.72,1.12-4.72h1.38l1.12,4.72,1.04-4.72h1.6l-1.7,6.46h-1.64l-1.1-4.77-1.1,4.77Zm12.55-2.1c-.01,.4,.2,1.03,1.28,1.03,.57,0,1.15-.1,1.15-.67,0-.7-.85-.83-1.63-1.01-1.16-.26-2.12-.55-2.12-1.99,0-1.04,.7-1.91,2.63-1.91,1.78,0,2.42,1.02,2.44,1.96h-1.43c-.04-.35-.28-.7-1.1-.7-.75,0-.99,.29-.99,.62,0,.56,.71,.68,1.27,.8,1.35,.26,2.49,.6,2.49,2.01,0,.52-.15,2.15-2.72,2.15-2.37,0-2.79-1.42-2.8-2.28h1.54Zm5.54-3.11v-1.25h5.39v1.25h-1.94v5.21h-1.51v-5.21h-1.95Zm9.87-1.25l2.41,6.46h-1.6l-.41-1.21h-2.33l-.4,1.21h-1.6l2.4-6.46h1.53Zm.06,4.15l-.83-2.46-.84,2.46h1.67Zm2.88-2.9v-1.25h5.4v1.25h-1.93v5.21h-1.51v-5.21h-1.95Zm11.97,1.31v1.19h-3.14v1.45h3.65v1.25h-5.16v-6.46h5.07v1.25h-3.56v1.31h3.14Zm10.43-2.57v3.77c0,1.07,.32,1.63,1.27,1.63s1.26-.52,1.26-1.63v-3.77h1.52v4.02c0,.65-.09,2.63-2.78,2.63s-2.78-1.93-2.78-2.63v-4.02h1.51Zm7.99,2.42v4.05h-1.51v-6.46h1.53l2.53,4.02h.03v-4.02h1.51v6.46h-1.54l-2.53-4.05h-.02Zm6.61-2.42h1.51v6.46h-1.51v-6.46Zm7.54,0h1.68l-2.18,6.46h-1.6l-2.17-6.46h1.73l1.3,4.62,1.25-4.62Zm8.03,2.57v1.19h-3.14v1.45h3.65v1.25h-5.16v-6.46h5.07v1.25h-3.56v1.31h3.14Zm2.52-2.57h3.29c.65,0,2.18,.17,2.18,1.84,0,1.09-.7,1.47-1.12,1.62v.02c.89,.26,.91,1.1,.92,1.57,.02,.82,.02,1.09,.25,1.42h-1.54c-.28-.41-.18-.66-.26-1.64-.06-.78-.86-.74-1.04-.74h-1.16v2.38h-1.52v-6.46Zm1.52,2.9h1.38c.85,0,.97-.5,.97-.81,0-.64-.38-.83-1.03-.83h-1.33v1.64Zm7.34,1.47c0,.4,.2,1.03,1.28,1.03,.57,0,1.15-.1,1.15-.67,0-.7-.85-.83-1.63-1.01-1.16-.26-2.12-.55-2.12-1.99,0-1.04,.7-1.91,2.63-1.91,1.78,0,2.42,1.02,2.44,1.96h-1.43c-.03-.35-.28-.7-1.1-.7-.75,0-.99,.29-.99,.62,0,.56,.71,.68,1.27,.8,1.35,.26,2.49,.6,2.49,2.01,0,.52-.15,2.15-2.72,2.15-2.37,0-2.79-1.42-2.8-2.28h1.53Zm6.11-4.37h1.51v6.46h-1.51v-6.46Zm3.46,1.25v-1.25h5.39v1.25h-1.93v5.21h-1.51v-5.21h-1.95Zm10.98-1.25h1.65l-2.25,4.03v2.44h-1.52v-2.44l-2.32-4.03h1.73l1.36,2.8,1.36-2.8Zm-94.69,11.49c0-1.51,.72-3.42,3.25-3.42,2.21,0,3.25,1.46,3.25,3.42s-1.04,3.41-3.25,3.41c-2.53,0-3.25-1.91-3.25-3.41m4.86,0c0-.58-.06-2.16-1.62-2.16-.83,0-1.6,.45-1.6,2.16s.77,2.16,1.6,2.16c1.54,0,1.62-1.62,1.62-2.16m8.01-.5v1.26h-2.66v2.47h-1.51v-6.46h4.66v1.26h-3.15v1.47h2.66Zm8.31-1.47v-1.26h5.4v1.26h-1.94v5.2h-1.51v-5.2h-1.95Zm11.96,1.31v1.19h-3.14v1.45h3.65v1.25h-5.17v-6.46h5.07v1.26h-3.56v1.31h3.14Zm8.29,1.62c-.1,.97-.64,2.46-2.92,2.46-1.64,0-3.15-.76-3.15-3.3,0-3.4,2.48-3.53,3.09-3.53,2.28,0,2.85,1.43,2.9,2.38h-1.48c-.14-1.08-.99-1.12-1.34-1.12s-1.53,.06-1.53,2.22c0,1.22,.55,2.1,1.58,2.1s1.28-.73,1.35-1.21h1.51Zm3.56,2.28h-1.51v-6.46h1.51v2.43h2.33v-2.43h1.51v6.46h-1.51v-2.78h-2.33v2.78Zm7.87-4.04v4.04h-1.51v-6.46h1.53l2.53,4.01h.03v-4.01h1.52v6.46h-1.54l-2.53-4.04h-.02Zm6.3,.81c0-1.51,.71-3.42,3.25-3.42,2.21,0,3.25,1.46,3.25,3.42s-1.04,3.41-3.25,3.41c-2.53,0-3.25-1.91-3.25-3.41m4.86,0c0-.58-.06-2.16-1.62-2.16-.83,0-1.6,.45-1.6,2.16s.77,2.16,1.6,2.16c1.54,0,1.61-1.62,1.62-2.16m8.34,3.23h-4.51v-6.46h1.51v5.21h2.99v1.25Zm1.61-3.23c0-1.51,.72-3.42,3.25-3.42,2.21,0,3.25,1.46,3.25,3.42s-1.04,3.41-3.25,3.41c-2.53,0-3.25-1.91-3.25-3.41m4.86,0c0-.58-.06-2.16-1.61-2.16-.83,0-1.61,.45-1.61,2.16s.77,2.16,1.61,2.16c1.54,0,1.61-1.62,1.61-2.16m9.79-.28v3.51h-1.13v-.69h-.02c-.43,.66-1.06,.88-1.95,.88-2.78,0-3.17-2.21-3.17-3.43,0-1.31,.51-3.4,3.39-3.4,1.86,0,2.65,1.18,2.82,2.28h-1.59c-.02-.26-.17-1.02-1.24-1.02-1.76,0-1.74,1.82-1.74,2.19,0,.39,.04,2.13,1.7,2.13,.66,0,1.39-.37,1.48-1.27h-1.28v-1.17h2.74Zm6.05-2.95h1.65l-2.25,4.02v2.44h-1.52v-2.44l-2.32-4.02h1.73l1.36,2.8,1.36-2.8Z"/>
  <polygon class="cls-3" points="163.05 14.98 168.56 25.24 180.74 23.7 170.36 29.21 175.23 37.28 166.51 33.18 157.28 43.05 161.13 31.13 139.08 29.72 162.28 25.36 163.05 14.98"/>
  <path class="cls-1" d="M166.69,58.88c-1.2,3.87-3.11,7.38-4.47,9.61h9.73c1.06-2.23,2.48-5.8,3.72-10.96,1.95-8.13,1.22-16.35,1.22-16.35l-9.35-5.38-2.1,1.15s5.83,7.06,1.25,21.92Z"/>
  <path class="cls-1" d="M156.9,19.49c-17.39-4.45-35.07-3.5-52.81-1.79l-5.7,6.19-.45-6.7L79.99,2.83l-10.5,23.83-15.64-4.86-10,4.86v25.38C18.53,71.25-3.64,105.95,11.2,126.49c8.43,11.68,29.52,13.94,47.88,11.57,21.28-2.75,38.59-10.48,47.2-14.96h-11.84c-5.04,2.48-12.04,5.63-18.14,7.28-19.83,5.38-41.72,8.06-55.94,1.29-9.53-4.55-12.5-18.6-8.76-30.42,4.63-14.65,16.82-30.88,32.24-42.27l.26,59.46h9.74V27.95l16.15,4.36-.26,86.12h10V11.55l18.45,15.38v40.44h5.89V22.82h14.61v44.54h2.83V24.36c6.88-1.57,13.75-1.63,20.63,.56l15.25-2.88-.51-2.56Z"/>
</svg>